<?xml version="1.0" standalone="no"?>
<!DOCTYPE svg PUBLIC "-//W3C//DTD SVG 20010904//EN"
 "http://www.w3.org/TR/2001/REC-SVG-20010904/DTD/svg10.dtd">
<svg version="1.0" xmlns="http://www.w3.org/2000/svg"
 width="1026.000000pt" height="1026.000000pt" viewBox="0 0 1026.000000 1026.000000"
 preserveAspectRatio="xMidYMid meet">
<metadata>
Created by potrace 1.14, written by Peter Selinger 2001-2017
</metadata>
<g transform="translate(0.000000,1026.000000) scale(0.100000,-0.100000)"
fill="#000000" stroke="none">
<path d="M6927 6875 c-17 -60 -79 -172 -103 -185 -13 -8 -24 -17 -24 -22 0
-18 -108 -111 -120 -103 -4 3 -13 -2 -20 -10 -7 -8 -16 -12 -21 -10 -4 3 -17
-2 -28 -12 -21 -17 -34 -21 -86 -26 -16 -1 -36 -6 -43 -11 -20 -12 -96 -15
-109 -4 -7 5 -18 6 -25 2 -7 -5 -28 -7 -46 -5 -25 2 -32 -1 -27 -9 4 -7 -3 -6
-16 3 -14 9 -50 15 -86 16 -34 1 -88 8 -120 16 -35 9 -61 11 -66 6 -6 -6 -17
-5 -28 2 -15 9 -24 9 -40 -1 -12 -8 -18 -9 -14 -3 7 13 8 12 -70 17 -33 2 -80
6 -105 9 -25 3 -63 7 -85 9 -22 2 -62 7 -90 11 -27 4 -71 8 -97 9 -27 0 -48 4
-48 9 0 4 -11 5 -25 1 -14 -4 -25 -2 -25 4 0 6 -16 9 -35 8 -21 -2 -35 1 -35
8 0 6 -5 4 -10 -4 -9 -13 -12 -13 -23 1 -9 11 -17 13 -27 6 -11 -6 -35 -4 -73
5 -31 8 -57 11 -57 6 0 -4 -11 -8 -25 -8 -19 0 -23 4 -19 18 4 12 3 13 -3 4
-12 -16 -110 -25 -118 -11 -4 5 -11 6 -17 3 -6 -4 -5 -10 3 -15 11 -7 10 -9
-3 -9 -10 0 -18 -4 -18 -9 0 -5 -17 -11 -38 -15 -43 -6 -95 -42 -89 -60 2 -6
-5 -19 -16 -28 -11 -10 -18 -18 -14 -18 3 0 -1 -26 -9 -57 -26 -110 -16 -161
43 -214 15 -15 94 -76 175 -138 81 -61 228 -175 326 -253 386 -308 514 -408
523 -408 16 0 10 23 -13 47 -16 17 -18 23 -7 24 8 1 25 3 39 4 32 3 52 -4 44
-17 -7 -11 47 -6 80 8 14 5 17 4 12 -4 -5 -9 6 -11 40 -7 27 3 53 0 61 -6 7
-6 13 -8 13 -3 0 5 11 10 24 10 16 1 23 -3 20 -11 -8 -19 46 -6 70 17 12 11
22 14 24 8 5 -14 119 -13 128 1 3 6 19 9 35 5 16 -3 29 -1 31 6 2 6 15 12 29
14 13 1 24 3 24 4 0 3 41 11 80 14 26 3 41 9 43 19 2 9 16 20 33 26 16 5 29
15 29 20 0 6 4 11 10 11 5 0 7 -8 4 -17 -4 -10 5 -5 19 12 15 18 21 33 15 36
-7 4 -7 9 0 13 6 4 15 -2 21 -11 6 -10 11 -13 11 -6 0 7 12 19 28 27 21 12 23
15 8 16 -15 0 -16 3 -6 14 6 8 17 13 24 10 8 -3 16 2 19 10 4 11 1 13 -10 9
-11 -4 -14 -2 -11 8 3 8 12 13 22 11 9 -2 16 4 16 12 0 8 7 22 16 30 9 9 13
24 9 35 -3 12 0 21 10 25 10 3 15 15 14 28 -2 13 0 29 5 36 16 26 35 127 25
137 -14 14 -11 25 6 25 8 0 15 4 15 9 0 5 -9 7 -21 4 -20 -6 -20 -5 2 36 25
48 29 112 9 136 -12 15 -12 21 2 46 10 17 13 29 6 29 -6 0 -8 9 -5 20 3 11 2
20 -3 20 -4 0 -4 15 0 34 4 19 4 40 -1 47 -4 7 -5 17 -3 21 3 5 -2 11 -11 14
-12 5 -13 10 -4 20 6 7 7 19 3 26 -4 7 -8 40 -8 73 -1 42 -5 59 -13 58 -7 -2
-13 2 -13 8 0 6 -7 9 -15 5 -11 -4 -8 4 7 27 13 17 25 34 28 37 18 18 71 143
68 162 -3 21 -4 20 -11 -7z m-40 -871 c-3 -3 -12 -4 -19 -1 -8 3 -5 6 6 6 11
1 17 -2 13 -5z m-287 -363 c0 -32 -38 -79 -73 -90 -49 -17 -117 -2 -117 25 0
16 16 19 25 4 9 -15 28 -12 22 4 -6 15 9 16 32 2 9 -6 12 -5 9 5 -6 18 20 38
50 39 15 0 22 6 22 20 0 13 5 18 15 14 8 -4 15 -14 15 -23z m130 15 c0 -3 -4
-8 -10 -11 -5 -3 -10 -1 -10 4 0 6 5 11 10 11 6 0 10 -2 10 -4z m-740 -102 c0
-19 -47 -26 -90 -14 -47 13 -54 25 -9 15 17 -4 29 -3 26 1 -3 5 12 9 34 9 23
0 39 -5 39 -11z"/>
<path d="M3515 6793 c-29 -81 -33 -96 -47 -168 -17 -93 -17 -429 0 -510 47
-217 131 -411 248 -571 68 -94 237 -268 323 -332 19 -15 56 -47 81 -71 l45
-43 -40 28 c-22 16 -42 32 -45 36 -3 4 -20 17 -37 30 -54 39 -139 106 -154
120 -28 27 -95 75 -144 103 -27 16 -55 33 -61 39 -6 6 -37 34 -69 61 -75 64
-101 90 -114 112 -5 10 -12 15 -15 12 -4 -3 3 -18 14 -32 11 -14 16 -28 12
-31 -10 -6 -52 46 -52 64 0 5 -4 10 -10 10 -5 0 -10 7 -10 16 0 14 3 14 15 4
8 -7 15 -10 15 -6 0 12 -93 197 -101 202 -13 8 16 -72 47 -128 16 -31 18 -42
4 -33 -15 9 -12 -10 11 -87 19 -66 20 -71 3 -89 -9 -10 -13 -19 -8 -19 5 0 10
-10 10 -22 1 -13 5 -36 9 -53 4 -16 8 -37 9 -45 1 -9 6 -21 10 -28 4 -7 5 -16
2 -19 -3 -3 -2 -11 3 -17 16 -19 58 -140 54 -154 -3 -7 0 -19 7 -27 6 -8 9
-19 5 -25 -3 -5 -1 -10 4 -10 6 0 11 -5 11 -10 0 -6 9 -29 19 -50 11 -22 15
-40 10 -40 -5 0 -9 -5 -9 -11 0 -5 5 -7 10 -4 9 5 15 -15 11 -37 0 -5 16 -8
37 -8 43 0 79 -28 69 -54 -4 -9 4 -22 19 -33 31 -23 40 -77 19 -110 -17 -26
-20 -53 -5 -53 6 0 10 -6 10 -14 0 -8 7 -16 15 -20 8 -3 15 -12 15 -21 0 -8 5
-15 12 -15 6 0 9 -3 6 -6 -3 -3 5 -16 17 -28 16 -16 31 -22 48 -19 44 9 94
-14 108 -50 7 -18 23 -42 36 -55 13 -12 21 -27 18 -32 -3 -6 0 -10 8 -10 28 0
50 -37 43 -73 -5 -24 -2 -38 9 -47 8 -7 12 -17 8 -24 -3 -6 -3 -8 2 -4 10 10
38 -19 30 -32 -3 -5 2 -10 12 -10 14 0 15 -2 5 -9 -11 -6 -10 -10 5 -16 10 -5
21 -7 26 -7 4 1 7 -7 7 -18 0 -13 5 -18 15 -14 16 6 68 -40 57 -50 -3 -3 2 -6
12 -6 9 0 15 -4 11 -9 -3 -5 1 -15 8 -23 7 -7 18 -26 25 -41 9 -22 17 -27 32
-22 24 8 25 2 6 -18 -13 -13 -9 -15 32 -21 26 -3 131 -22 235 -42 133 -26 187
-41 187 -50 0 -8 11 -14 24 -14 14 0 37 -5 52 -10 24 -9 47 -14 124 -24 13 -2
26 -9 28 -15 2 -6 8 -11 14 -11 5 0 25 -7 44 -16 19 -9 38 -14 41 -10 4 3 14
-1 24 -10 44 -40 176 -36 214 6 10 11 25 20 34 20 22 0 68 53 93 108 18 37 19
50 11 88 -6 24 -7 41 -3 39 4 -2 7 11 8 30 1 24 -3 35 -12 35 -8 0 -16 -3 -19
-7 -2 -5 -2 -2 -1 5 2 6 -1 12 -7 12 -5 0 -14 11 -19 25 -5 14 -14 25 -19 25
-6 0 -8 7 -5 15 7 17 -11 21 -21 5 -10 -17 -25 -1 -25 26 0 18 -5 24 -17 22
-13 -2 -17 3 -15 18 2 18 -1 21 -23 16 -20 -3 -24 -1 -19 11 4 12 -2 18 -20
23 -14 3 -26 13 -26 21 0 9 -6 13 -14 10 -13 -5 -46 25 -46 42 0 6 -10 13 -22
17 -13 4 -35 20 -51 35 -15 16 -36 29 -47 29 -13 0 -20 7 -20 20 0 11 -5 20
-11 20 -6 0 -28 18 -50 40 -22 22 -44 38 -50 35 -5 -4 -9 -1 -9 5 0 16 -28 42
-39 36 -5 -3 -19 8 -32 24 -13 16 -32 30 -43 30 -12 0 -16 5 -12 15 3 8 0 15
-6 15 -12 0 -48 39 -48 52 0 5 -9 6 -20 3 -19 -6 -25 2 -21 31 1 6 -16 14 -36
17 -21 4 -46 16 -55 27 -10 11 -24 20 -33 20 -8 0 -12 6 -9 14 4 9 -5 16 -28
20 -18 3 -39 15 -46 27 -11 17 -11 20 0 13 7 -4 5 2 -6 14 -14 17 -23 19 -37
11 -21 -11 -26 0 -8 18 8 8 1 15 -25 24 -20 7 -36 19 -36 26 0 8 -13 16 -30
19 -16 4 -27 10 -25 15 9 13 -27 49 -48 49 -13 0 -17 5 -13 15 3 8 0 15 -6 15
-6 0 -26 11 -44 25 -18 14 -36 25 -39 25 -4 0 -16 12 -27 26 -11 14 -27 23
-34 20 -10 -4 -14 3 -14 20 0 14 -5 24 -12 23 -27 -3 -38 2 -38 16 0 8 -7 15
-15 15 -8 0 -15 4 -15 9 0 5 -9 13 -21 16 -21 7 -59 40 -59 51 0 13 -60 64
-75 64 -9 0 -12 6 -9 15 4 8 2 15 -2 15 -9 0 -68 56 -107 100 -10 12 -15 25
-12 30 3 6 -1 7 -9 4 -10 -4 -16 -1 -16 8 0 8 -11 25 -25 38 -14 13 -24 29
-21 35 2 6 -5 17 -15 24 -11 6 -17 17 -13 23 4 6 -1 17 -10 24 -10 7 -17 16
-16 21 0 4 -6 22 -14 38 -43 92 -107 302 -105 346 0 19 -4 49 -9 67 -11 33 -9
323 2 372 3 14 8 50 11 80 2 29 12 76 21 103 21 63 11 73 -11 10z m746 -1770
c13 -16 12 -17 -3 -4 -10 7 -18 15 -18 17 0 8 8 3 21 -13z m80 -873 c8 0 15
-9 16 -20 2 -17 -1 -18 -17 -10 -19 10 -40 41 -40 57 0 4 7 0 14 -9 7 -10 20
-18 27 -18z"/>
<path d="M6580 6529 c0 -5 5 -7 10 -4 6 3 10 8 10 11 0 2 -4 4 -10 4 -5 0 -10
-5 -10 -11z"/>
<path d="M6914 6282 c4 -7 2 -12 -3 -12 -6 0 -11 -4 -11 -10 0 -15 17 -12 23
5 4 8 1 17 -5 21 -7 4 -8 3 -4 -4z"/>
<path d="M3279 3353 c-16 -78 -6 -232 19 -311 27 -83 106 -205 177 -274 11
-11 42 -34 68 -51 27 -17 44 -33 39 -35 -20 -6 -113 49 -160 96 -26 26 -79 76
-117 112 -39 36 -84 82 -102 103 -18 20 -39 37 -46 37 -22 0 -38 25 -30 45 4
12 3 16 -5 12 -6 -4 -13 1 -16 10 -8 26 0 -31 18 -127 21 -114 26 -132 41
-126 8 3 18 -17 29 -55 9 -33 26 -80 37 -104 21 -44 19 -65 -6 -65 -10 0 -11
-8 -3 -37 5 -21 14 -58 20 -83 6 -25 15 -48 20 -51 5 -3 10 -13 12 -21 1 -9 8
-24 16 -33 10 -12 11 -18 2 -24 -8 -5 -4 -15 12 -32 17 -19 21 -30 14 -42 -6
-12 -3 -23 12 -39 11 -12 20 -28 20 -35 0 -7 4 -13 9 -13 5 0 7 -9 4 -20 -3
-11 0 -20 6 -20 6 0 11 -10 11 -23 0 -12 9 -29 20 -37 12 -9 18 -21 14 -32 -3
-12 0 -18 10 -18 9 0 16 -3 17 -7 3 -31 10 -49 23 -59 9 -6 16 -16 16 -23 0
-6 7 -11 15 -11 8 0 15 -5 15 -11 0 -5 5 -7 10 -4 6 3 10 -3 10 -14 0 -12 6
-21 13 -21 7 0 21 -11 31 -25 10 -13 24 -22 30 -18 6 3 8 3 4 -2 -5 -5 6 -16
22 -26 17 -11 30 -23 30 -29 0 -5 9 -10 20 -10 11 0 20 -4 20 -9 0 -5 9 -11
20 -14 13 -3 18 -10 14 -21 -3 -9 -1 -16 5 -16 6 0 11 5 11 11 0 6 7 3 16 -5
8 -9 19 -16 22 -16 4 0 22 -14 40 -30 31 -28 33 -28 26 -8 -7 23 -6 23 15 4
11 -11 24 -17 27 -13 3 3 16 -5 29 -19 12 -13 27 -24 33 -24 6 0 13 -6 16 -12
5 -10 7 -10 12 0 3 6 10 12 15 12 6 0 7 -5 3 -12 -5 -8 -2 -9 11 -4 19 7 58
-20 49 -35 -3 -5 2 -6 11 -3 12 5 13 9 4 20 -7 8 -9 17 -5 21 3 3 6 1 6 -7 0
-9 3 -10 14 -1 10 9 16 8 26 -4 7 -8 20 -15 29 -15 14 0 14 2 1 10 -11 8 -9 9
13 8 15 -1 27 -6 27 -10 0 -4 17 -7 38 -6 20 0 39 -1 42 -2 3 -1 15 -3 27 -4
20 -2 21 -1 10 23 -7 14 -12 33 -11 41 1 8 2 21 3 28 1 13 41 17 41 5 0 -12
104 -6 108 6 2 6 8 11 13 11 4 0 6 -7 3 -15 -6 -14 15 -21 53 -16 21 3 1 -38
-34 -70 -19 -16 -32 -33 -28 -37 4 -4 12 0 18 10 10 14 13 15 34 1 19 -13 26
-13 38 -3 13 11 18 10 31 -9 l16 -22 23 25 c14 15 27 21 30 16 3 -6 1 -10 -5
-10 -6 0 -8 -4 -5 -10 4 -6 13 -5 26 3 13 8 22 9 27 2 4 -5 21 -11 37 -12 17
-1 56 -4 87 -6 31 -2 64 -9 72 -16 8 -7 17 -8 20 -3 3 4 -10 14 -29 21 -34 12
-75 57 -75 81 0 7 7 10 16 6 9 -4 22 -2 29 4 8 7 15 7 19 1 3 -5 24 -7 46 -5
21 2 42 -1 45 -6 4 -7 14 -6 27 1 11 6 24 7 28 2 15 -15 -17 -69 -51 -86 -19
-9 -32 -17 -29 -18 33 -6 40 -6 40 2 0 5 5 9 10 9 6 0 10 -7 10 -16 0 -10 4
-12 13 -7 6 4 26 13 44 19 26 9 30 9 25 -4 -4 -12 0 -14 20 -9 17 5 30 2 38
-8 14 -17 30 -20 30 -6 0 5 -8 12 -17 14 -10 3 5 3 32 1 122 -12 139 -12 156
-3 11 5 20 5 23 0 4 -5 0 -11 -6 -14 -7 -2 4 -6 25 -9 33 -4 38 -2 34 14 -6
22 11 24 20 3 5 -14 8 -14 22 -2 24 21 61 28 54 11 -3 -8 -1 -14 5 -14 6 0 12
4 14 9 2 5 34 11 71 14 49 3 74 10 90 24 12 11 32 26 44 32 29 15 106 14 122
-1 11 -11 13 -10 8 5 -6 15 -4 16 15 6 18 -10 20 -9 14 6 -4 12 -2 16 8 12 8
-3 16 -2 18 3 2 5 15 11 30 14 28 5 77 35 78 49 0 4 9 7 20 7 27 0 70 21 70
34 0 6 4 17 9 25 8 12 12 13 26 1 14 -11 16 -11 13 1 -2 8 5 14 16 14 10 0 23
10 27 23 5 13 21 27 37 33 28 10 51 52 60 108 8 57 59 111 105 111 8 0 31 14
52 30 24 19 32 30 21 30 -9 0 -16 5 -16 11 0 6 7 8 16 5 8 -3 12 -2 9 4 -3 6
1 10 9 10 8 0 20 16 27 35 8 22 18 34 26 31 7 -3 13 -1 13 4 0 6 -6 10 -12 10
-7 0 -5 5 5 11 9 6 15 14 12 20 -3 5 1 6 9 3 20 -8 20 0 1 20 -13 13 -11 15
15 21 26 6 29 10 24 31 -4 15 -2 24 6 24 7 0 10 7 7 15 -4 8 -2 17 3 20 6 4
10 11 10 16 0 6 -4 8 -9 5 -4 -3 -6 6 -3 19 2 13 9 23 15 22 7 -1 13 8 15 21
2 12 8 22 13 22 5 0 9 5 9 11 0 6 -7 8 -16 5 -14 -5 -15 -4 -5 8 11 13 8 14
-21 6 -18 -6 -38 -10 -44 -10 -16 0 -25 38 -10 43 6 2 12 17 14 33 1 16 4 39
5 52 1 12 6 22 10 22 5 0 7 8 6 18 -4 26 10 72 22 72 6 0 7 5 4 10 -13 21 20
9 47 -17 21 -20 31 -24 40 -15 8 8 8 15 0 24 -7 9 -7 19 -2 28 5 8 7 23 4 33
-3 9 -1 17 5 17 5 0 8 19 6 45 -2 25 0 45 5 45 6 0 7 19 4 44 -4 25 -2 52 5
64 9 16 8 24 -2 34 -16 14 -11 48 7 48 6 0 4 6 -5 13 -9 7 -16 19 -16 27 0 8
-3 26 -8 40 -7 22 -6 23 9 11 11 -9 16 -10 16 -2 0 6 -6 14 -13 17 -9 3 -12
23 -11 64 1 36 -2 60 -8 60 -6 0 -17 8 -25 18 -8 9 -12 12 -9 6 3 -7 -5 -19
-19 -28 -14 -9 -25 -23 -25 -31 0 -8 -7 -15 -15 -15 -8 0 -15 -8 -15 -17 0
-19 -44 -87 -76 -118 -11 -11 -29 -35 -39 -52 -11 -18 -23 -33 -27 -33 -4 0
-8 -5 -8 -10 0 -6 -10 -22 -22 -35 -13 -13 -37 -38 -54 -57 -52 -55 -135 -128
-146 -128 -5 0 -19 -11 -29 -25 -13 -15 -26 -22 -36 -18 -12 5 -15 2 -10 -10
6 -15 -3 -22 -25 -18 -4 0 -10 -8 -13 -19 -4 -12 -12 -20 -18 -19 -37 4 -67
-2 -67 -16 0 -8 -6 -12 -13 -9 -8 3 -18 -6 -25 -21 -8 -17 -17 -23 -24 -19
-18 11 -48 12 -54 2 -3 -4 -13 -8 -23 -8 -9 0 -22 -5 -29 -12 -6 -6 -26 -13
-44 -15 -17 -2 -35 -8 -38 -13 -4 -6 -14 -8 -24 -4 -10 4 -22 0 -29 -9 -14
-19 -114 -29 -121 -13 -3 7 -5 6 -5 -1 -1 -7 -9 -13 -19 -13 -10 0 -23 -5 -30
-12 -9 -9 -12 -8 -12 7 -1 18 -2 18 -10 4 -7 -13 -21 -16 -55 -13 -27 2 -45
-1 -45 -8 0 -7 -4 -7 -12 -1 -18 13 -60 14 -52 1 4 -6 -3 -5 -16 2 -18 10 -24
9 -36 -7 -7 -10 -14 -13 -14 -6 0 7 -17 11 -45 11 -24 -1 -50 3 -57 9 -15 11
-57 11 -75 0 -7 -5 -18 -5 -24 -2 -19 12 -117 16 -124 6 -4 -8 -13 -7 -28 1
-32 17 -107 21 -107 6 0 -7 -8 -3 -17 9 -15 19 -19 19 -39 6 -14 -9 -24 -10
-28 -4 -4 6 -14 7 -23 4 -11 -4 -14 -3 -9 5 4 7 3 12 -3 12 -5 0 -13 -5 -16
-10 -4 -6 -12 -7 -18 -3 -6 4 -20 8 -32 9 -11 1 -42 5 -70 9 -27 4 -72 7 -100
7 -27 0 -55 4 -60 8 -6 5 -22 10 -35 12 -14 2 -31 7 -38 11 -7 5 -12 5 -11 0
4 -21 -3 -22 -27 -7 -19 13 -28 14 -33 6 -8 -14 -178 3 -198 20 -9 7 -13 7
-13 -2 0 -8 -8 -10 -27 -5 -16 4 -36 7 -45 7 -10 0 -18 3 -18 7 0 5 -19 5 -42
1 -23 -5 -46 -6 -52 -4 -18 5 -78 15 -125 20 -24 3 -57 14 -72 25 -16 11 -29
18 -29 14 0 -3 -11 2 -25 11 -13 8 -29 13 -35 9 -5 -3 -10 -2 -10 3 0 5 -16
17 -36 27 -23 11 -34 22 -30 31 3 8 0 14 -7 14 -7 0 -23 9 -35 20 -12 11 -26
20 -32 20 -5 0 -10 8 -10 18 0 9 -9 23 -21 30 -12 7 -18 16 -15 19 5 6 -30 63
-47 74 -4 3 -7 10 -6 15 4 21 -2 34 -22 53 l-21 20 23 -6 24 -6 -20 24 c-47
55 -58 98 -56 222 0 42 -1 77 -3 77 -3 0 -10 -26 -17 -57z m371 -693 c0 -5 -4
-10 -9 -10 -6 0 -13 5 -16 10 -3 6 1 10 9 10 9 0 16 -4 16 -10z m2391 -874
c-29 -31 -72 -49 -103 -43 -20 3 -18 6 19 22 28 12 43 25 48 42 3 13 10 21 16
17 6 -3 8 -13 5 -21 -3 -8 -1 -11 5 -8 5 4 7 16 3 28 -6 21 -5 21 12 5 17 -17
17 -19 -5 -42z m149 4 c0 -5 -2 -10 -4 -10 -3 0 -8 5 -11 10 -3 6 -1 10 4 10
6 0 11 -4 11 -10z m-860 -245 c-7 -8 -18 -15 -24 -15 -6 0 -2 7 8 15 25 19 32
19 16 0z"/>
<path d="M6710 3381 c0 -5 5 -13 10 -16 6 -3 10 -2 10 4 0 5 -4 13 -10 16 -5
3 -10 2 -10 -4z"/>
<path d="M6740 2779 c0 -5 5 -7 10 -4 6 3 10 8 10 11 0 2 -4 4 -10 4 -5 0 -10
-5 -10 -11z"/>
<path d="M6648 2423 c7 -3 16 -2 19 1 4 3 -2 6 -13 5 -11 0 -14 -3 -6 -6z"/>
<path d="M3605 1830 c3 -5 8 -10 11 -10 2 0 4 5 4 10 0 6 -5 10 -11 10 -5 0
-7 -4 -4 -10z"/>
<path d="M5470 1519 c0 -5 5 -7 10 -4 6 3 10 8 10 11 0 2 -4 4 -10 4 -5 0 -10
-5 -10 -11z"/>
</g>
</svg>
